<?xml version="1.0" ?><!DOCTYPE svg  PUBLIC '-//W3C//DTD SVG 1.1//EN'  'http://www.w3.org/Graphics/SVG/1.1/DTD/svg11.dtd'><svg enable-background="new 0 0 64 64" height="64px" id="Layer_1" version="1.1" viewBox="0 0 64 64" width="64px" xml:space="preserve" xmlns="http://www.w3.org/2000/svg" xmlns:xlink="http://www.w3.org/1999/xlink"><g><g><g><rect fill="#DFE3E6" height="46" width="34" x="30" y="13"/><rect fill="#FFFFFF" height="38" width="30" x="30" y="17"/><path d="M63.414,3.586C63.023,3.195,62.512,3,62,3H30v10h34V5C64,4.488,63.805,3.977,63.414,3.586z" fill="#5E5C5C"/><path d="M30,59v2h32c0.512,0,1.023-0.195,1.414-0.586S64,59.512,64,59H30z" fill="#CFD3D6"/></g><g><rect fill="#CFD3D6" height="6" width="6" x="50" y="21"/><rect fill="#CFD3D6" height="6" width="6" x="42" y="21"/><rect fill="#CFD3D6" height="6" width="6" x="34" y="21"/><rect fill="#F4608A" height="10" width="14" x="42" y="29"/><rect fill="#CFD3D6" height="22" width="6" x="34" y="29"/><g><line fill="none" stroke="#5E5C5C" stroke-miterlimit="10" stroke-width="2" x1="42" x2="56" y1="42" y2="42"/><line fill="none" stroke="#5E5C5C" stroke-miterlimit="10" stroke-width="2" x1="42" x2="56" y1="46" y2="46"/><line fill="none" stroke="#5E5C5C" stroke-miterlimit="10" stroke-width="2" x1="42" x2="56" y1="50" y2="50"/></g></g><g><line fill="none" stroke="#FFFFFF" stroke-miterlimit="10" stroke-width="2" x1="44" x2="46" y1="34" y2="34"/><line fill="none" stroke="#FFFFFF" stroke-miterlimit="10" stroke-width="2" x1="48" x2="50" y1="34" y2="34"/><line fill="none" stroke="#FFFFFF" stroke-miterlimit="10" stroke-width="2" x1="52" x2="54" y1="34" y2="34"/></g></g><g><g><path d="M32.828,4.172C32.048,3.391,31.023,3,30,3H4C2.977,3,1.952,3.391,1.172,4.172C0.391,4.953,0,5.977,0,7v50     c0,1.023,0.391,2.047,1.172,2.828C1.952,60.609,2.977,61,4,61h26c1.023,0,2.048-0.391,2.828-1.172C33.609,59.047,34,58.023,34,57     V7C34,5.977,33.609,4.953,32.828,4.172z" fill="#474545"/><rect fill="#FFFFFF" height="38" width="30" x="2" y="13"/><line fill="none" stroke="#5E5C5C" stroke-miterlimit="10" stroke-width="2" x1="13" x2="21" y1="8" y2="8"/><line fill="none" stroke="#5E5C5C" stroke-linecap="round" stroke-miterlimit="10" stroke-width="4" x1="15" x2="19" y1="56" y2="56"/></g><g><g><circle cx="17" cy="28" fill="#CFD3D6" r="10"/><g><path d="M19.828,32.172C19.048,31.391,18.023,31,17,31s-2.048,0.391-2.828,1.172C13.391,32.953,13,33.977,13,35       v3h8v-3C21,33.977,20.609,32.953,19.828,32.172z" fill="#FFFFFF"/><circle cx="17" cy="27" fill="#FFFFFF" r="3"/></g></g><line fill="none" stroke="#5E5C5C" stroke-miterlimit="10" stroke-width="2" x1="13" x2="21" y1="47" y2="47"/><rect fill="#F4608A" height="4" width="14" x="10" y="40"/></g></g></g></svg>